HIERARCHY
ROOT Hips
{
	OFFSET 0.000000 71.427986 0.000000
	CHANNELS 6 Xposition Yposition Zposition Xrotation Yrotation Zrotation
	JOINT Pelvis
	{
		OFFSET 0.000000 0.000000 0.000000
		CHANNELS 3 Xrotation Yrotation Zrotation
		JOINT LeftUpLeg
		{
			OFFSET 6.797100 -2.508499 -1.318700
			CHANNELS 3 Xrotation Yrotation Zrotation
			JOINT LeftLeg
			{
				OFFSET 0.069008 -29.241863 0.690200
				CHANNELS 3 Xrotation Yrotation Zrotation
				JOINT LeftFoot
				{
					OFFSET -0.069008 -29.568123 -0.266800
					CHANNELS 3 Xrotation Yrotation Zrotation
					JOINT LeftToeBase
					{
						OFFSET 3.145500 -8.631000 16.059900
						CHANNELS 3 Xrotation Yrotation Zrotation
						End Site
						{
							OFFSET 0.000000 18.501587 0.000000
						}
					}
				}
			}
			JOINT Left_ShortSleeve
			{
				OFFSET 0.265923 -10.480953 1.153800
				CHANNELS 3 Xrotation Yrotation Zrotation
				End Site
				{
					OFFSET 1.725763 19.823879 0.000000
				}
			}
		}
		JOINT RightUpLeg
		{
			OFFSET -6.797100 -2.508499 -1.318700
			CHANNELS 3 Xrotation Yrotation Zrotation
			JOINT RightLeg
			{
				OFFSET -0.082453 -29.241932 0.688000
				CHANNELS 3 Xrotation Yrotation Zrotation
				JOINT RightFoot
				{
					OFFSET 0.082453 -29.568058 -0.264600
					CHANNELS 3 Xrotation Yrotation Zrotation
					JOINT RightToeBase
					{
						OFFSET -3.115300 -8.682800 16.113400
						CHANNELS 3 Xrotation Yrotation Zrotation
						End Site
						{
							OFFSET 0.000000 18.567114 0.000000
						}
					}
				}
			}
			JOINT Right_ShortSleeve
			{
				OFFSET -0.265923 -10.480953 1.153800
				CHANNELS 3 Xrotation Yrotation Zrotation
				End Site
				{
					OFFSET -1.725766 19.823910 0.000000
				}
			}
		}
	}
	JOINT Spine
	{
		OFFSET 0.000000 13.368103 0.470500
		CHANNELS 3 Xrotation Yrotation Zrotation
		JOINT Spine1
		{
			OFFSET 0.147000 13.837402 0.538800
			CHANNELS 3 Xrotation Yrotation Zrotation
			JOINT Spine2
			{
				OFFSET 0.168000 16.242897 -1.435500
				CHANNELS 3 Xrotation Yrotation Zrotation
				JOINT Neck
				{
					OFFSET 0.217200 18.631500 -1.679100
					CHANNELS 3 Xrotation Yrotation Zrotation
					JOINT Head
					{
						OFFSET 0.000000 6.599396 1.385900
						CHANNELS 3 Xrotation Yrotation Zrotation
						JOINT Hat
						{
							OFFSET -0.532200 27.220596 -10.096100
							CHANNELS 3 Xrotation Yrotation Zrotation
							End Site
							{
								OFFSET 0.000000 22.029861 0.000000
							}
						}
						JOINT HairD
						{
							OFFSET -10.777400 17.437393 -1.325900
							CHANNELS 3 Xrotation Yrotation Zrotation
							JOINT HairD1
							{
								OFFSET -3.290299 -11.051193 1.062200
								CHANNELS 3 Xrotation Yrotation Zrotation
								End Site
								{
									OFFSET 0.000000 11.579437 0.000000
								}
							}
						}
						JOINT HairB
						{
							OFFSET -10.777400 17.437393 1.467900
							CHANNELS 3 Xrotation Yrotation Zrotation
							JOINT HairB1
							{
								OFFSET -1.561200 -12.956299 3.590200
								CHANNELS 3 Xrotation Yrotation Zrotation
								End Site
								{
									OFFSET 0.000000 13.534866 0.000000
								}
							}
						}
						JOINT HairA
						{
							OFFSET 9.713100 17.437393 1.467900
							CHANNELS 3 Xrotation Yrotation Zrotation
							JOINT HairA1
							{
								OFFSET 1.561200 -12.956299 3.590200
								CHANNELS 3 Xrotation Yrotation Zrotation
								End Site
								{
									OFFSET 0.000000 13.534866 0.000000
								}
							}
						}
						JOINT HairC
						{
							OFFSET 9.713100 17.437393 -1.325900
							CHANNELS 3 Xrotation Yrotation Zrotation
							JOINT HairC1
							{
								OFFSET 3.290300 -11.051193 1.062200
								CHANNELS 3 Xrotation Yrotation Zrotation
								End Site
								{
									OFFSET 0.000000 11.579437 0.000000
								}
							}
						}
					}
				}
				JOINT LeftShoulder
				{
					OFFSET 5.101800 15.108002 -2.763700
					CHANNELS 3 Xrotation Yrotation Zrotation
					JOINT LeftArm
					{
						OFFSET 9.825497 2.506317 -1.597400
						CHANNELS 3 Xrotation Yrotation Zrotation
						JOINT LeftForeArm
						{
							OFFSET 21.966244 0.000000 0.000000
							CHANNELS 3 Xrotation Yrotation Zrotation
							JOINT LeftHand
							{
								OFFSET 33.879036 0.000000 0.000000
								CHANNELS 3 Xrotation Yrotation Zrotation
								JOINT LeftHandThumb1
								{
									OFFSET 6.715286 -2.359680 3.363841
									CHANNELS 3 Xrotation Yrotation Zrotation
									JOINT LeftHandThumb2
									{
										OFFSET 2.507072 -1.447464 1.447461
										CHANNELS 3 Xrotation Yrotation Zrotation
										JOINT LeftHandThumb3
										{
											OFFSET 2.898338 -1.673355 1.673357
											CHANNELS 3 Xrotation Yrotation Zrotation
											End Site
											{
												OFFSET -0.295959 3.727692 -0.131651
											}
										}
									}
								}
								JOINT LeftHandIndex1
								{
									OFFSET 14.190811 -0.254547 3.840278
									CHANNELS 3 Xrotation Yrotation Zrotation
									JOINT LeftHandIndex2
									{
										OFFSET 3.551727 0.000000 -0.000000
										CHANNELS 3 Xrotation Yrotation Zrotation
										JOINT LeftHandIndex3
										{
											OFFSET 2.894196 0.000000 0.000000
											CHANNELS 3 Xrotation Yrotation Zrotation
											End Site
											{
												OFFSET -1.000603 2.690872 0.366626
											}
										}
									}
								}
								JOINT LeftHandMiddle1
								{
									OFFSET 13.776489 0.000000 0.000000
									CHANNELS 3 Xrotation Yrotation Zrotation
									JOINT LeftHandMiddle2
									{
										OFFSET 3.438232 0.000000 0.000000
										CHANNELS 3 Xrotation Yrotation Zrotation
										JOINT LeftHandMiddle3
										{
											OFFSET 3.691551 0.000000 0.000000
											CHANNELS 3 Xrotation Yrotation Zrotation
											End Site
											{
												OFFSET -1.082298 3.499527 0.457670
											}
										}
									}
								}
								JOINT LeftHandRing1
								{
									OFFSET 13.966164 -0.268127 -3.067488
									CHANNELS 3 Xrotation Yrotation Zrotation
									JOINT LeftHandRing2
									{
										OFFSET 3.162567 0.000000 0.000000
										CHANNELS 3 Xrotation Yrotation Zrotation
										JOINT LeftHandRing3
										{
											OFFSET 3.324348 0.000000 0.000000
											CHANNELS 3 Xrotation Yrotation Zrotation
											End Site
											{
												OFFSET -0.861900 3.184998 0.405154
											}
										}
									}
								}
								JOINT LeftHandPinky1
								{
									OFFSET 13.131393 -0.168503 -5.746925
									CHANNELS 3 Xrotation Yrotation Zrotation
									JOINT LeftHandPinky2
									{
										OFFSET 2.849182 0.000000 0.000000
										CHANNELS 3 Xrotation Yrotation Zrotation
										JOINT LeftHandPinky3
										{
											OFFSET 2.805038 0.000000 0.000000
											CHANNELS 3 Xrotation Yrotation Zrotation
											End Site
											{
												OFFSET -0.882500 2.642609 0.325652
											}
										}
									}
								}
							}
							JOINT Left_Sleeve
							{
								OFFSET 6.592125 -0.646545 0.805568
								CHANNELS 3 Xrotation Yrotation Zrotation
								End Site
								{
									OFFSET -0.000179 20.275787 -0.000000
								}
							}
						}
					}
				}
				JOINT RightShoulder
				{
					OFFSET -5.731700 15.108002 -2.763700
					CHANNELS 3 Xrotation Yrotation Zrotation
					JOINT RightArm
					{
						OFFSET -9.825497 2.506317 -1.597400
						CHANNELS 3 Xrotation Yrotation Zrotation
						JOINT RightForeArm
						{
							OFFSET -21.966242 0.000000 0.000000
							CHANNELS 3 Xrotation Yrotation Zrotation
							JOINT RightHand
							{
								OFFSET -33.879032 0.000000 0.000000
								CHANNELS 3 Xrotation Yrotation Zrotation
								JOINT RightHandThumb1
								{
									OFFSET -6.715286 -2.359680 3.363841
									CHANNELS 3 Xrotation Yrotation Zrotation
									JOINT RightHandThumb2
									{
										OFFSET -2.507072 -1.447464 1.447461
										CHANNELS 3 Xrotation Yrotation Zrotation
										JOINT RightHandThumb3
										{
											OFFSET -2.898338 -1.673355 1.673357
											CHANNELS 3 Xrotation Yrotation Zrotation
											End Site
											{
												OFFSET 0.295959 3.727692 -0.131651
											}
										}
									}
								}
								JOINT RightHandIndex1
								{
									OFFSET -14.190811 -0.254547 3.840278
									CHANNELS 3 Xrotation Yrotation Zrotation
									JOINT RightHandIndex2
									{
										OFFSET -3.551727 0.000000 -0.000000
										CHANNELS 3 Xrotation Yrotation Zrotation
										JOINT RightHandIndex3
										{
											OFFSET -2.894196 0.000000 0.000000
											CHANNELS 3 Xrotation Yrotation Zrotation
											End Site
											{
												OFFSET 1.000603 2.690872 0.366626
											}
										}
									}
								}
								JOINT RightHandMiddle1
								{
									OFFSET -13.776489 0.000000 0.000000
									CHANNELS 3 Xrotation Yrotation Zrotation
									JOINT RightHandMiddle2
									{
										OFFSET -3.438232 0.000000 0.000000
										CHANNELS 3 Xrotation Yrotation Zrotation
										JOINT RightHandMiddle3
										{
											OFFSET -3.691551 0.000000 0.000000
											CHANNELS 3 Xrotation Yrotation Zrotation
											End Site
											{
												OFFSET 1.082298 3.499527 0.457670
											}
										}
									}
								}
								JOINT RightHandRing1
								{
									OFFSET -13.966164 -0.268127 -3.067488
									CHANNELS 3 Xrotation Yrotation Zrotation
									JOINT RightHandRing2
									{
										OFFSET -3.162567 0.000000 0.000000
										CHANNELS 3 Xrotation Yrotation Zrotation
										JOINT RightHandRing3
										{
											OFFSET -3.324348 0.000000 0.000000
											CHANNELS 3 Xrotation Yrotation Zrotation
											End Site
											{
												OFFSET 0.861900 3.184998 0.405154
											}
										}
									}
								}
								JOINT RightHandPinky1
								{
									OFFSET -13.131393 -0.168503 -5.746925
									CHANNELS 3 Xrotation Yrotation Zrotation
									JOINT RightHandPinky2
									{
										OFFSET -2.849182 0.000000 0.000000
										CHANNELS 3 Xrotation Yrotation Zrotation
										JOINT RightHandPinky3
										{
											OFFSET -2.805038 0.000000 0.000000
											CHANNELS 3 Xrotation Yrotation Zrotation
											End Site
											{
												OFFSET 0.882500 2.642609 0.325652
											}
										}
									}
								}
							}
							JOINT Right_Sleeve
							{
								OFFSET -6.592125 -0.646545 0.805568
								CHANNELS 3 Xrotation Yrotation Zrotation
								End Site
								{
									OFFSET 0.000179 20.275787 -0.000000
								}
							}
						}
					}
				}
				JOINT Bind_Right_JacketString
				{
					OFFSET -3.534800 11.969597 7.200700
					CHANNELS 3 Xrotation Yrotation Zrotation
					JOINT Bind_Right_JacketString1
					{
						OFFSET -0.319900 -6.102600 2.794100
						CHANNELS 3 Xrotation Yrotation Zrotation
						End Site
						{
							OFFSET 0.000000 6.719452 0.000000
						}
					}
				}
				JOINT Bind_Left_JacketString
				{
					OFFSET 2.904800 11.969597 7.200700
					CHANNELS 3 Xrotation Yrotation Zrotation
					JOINT Bind_Left_JacketString1
					{
						OFFSET 0.364800 -5.904503 3.186800
						CHANNELS 3 Xrotation Yrotation Zrotation
						End Site
						{
							OFFSET 0.000000 6.719513 0.000000
						}
					}
				}
				JOINT HairE
				{
					OFFSET 5.915200 17.612701 -11.592200
					CHANNELS 3 Xrotation Yrotation Zrotation
					JOINT HairE1
					{
						OFFSET 0.289200 -7.171898 -1.284500
						CHANNELS 3 Xrotation Yrotation Zrotation
						End Site
						{
							OFFSET 0.000000 7.291756 0.000000
						}
					}
				}
				JOINT HairF
				{
					OFFSET -0.864800 17.612701 -11.592200
					CHANNELS 3 Xrotation Yrotation Zrotation
					JOINT HairF1
					{
						OFFSET 0.000000 -14.087097 -2.127501
						CHANNELS 3 Xrotation Yrotation Zrotation
						End Site
						{
							OFFSET 0.000000 14.246841 0.000000
						}
					}
				}
				JOINT HairG
				{
					OFFSET -8.087700 17.612701 -11.592200
					CHANNELS 3 Xrotation Yrotation Zrotation
					JOINT HairG1
					{
						OFFSET -0.293600 -6.081398 -0.910100
						CHANNELS 3 Xrotation Yrotation Zrotation
						End Site
						{
							OFFSET 0.000000 6.156120 0.000000
						}
					}
				}
			}
		}
	}
	JOINT Pouch
	{
		OFFSET 0.000000 4.394501 10.847300
		CHANNELS 3 Xrotation Yrotation Zrotation
		End Site
		{
			OFFSET 0.000000 21.880577 0.000000
		}
	}
	JOINT Bag
	{
		OFFSET -13.229000 4.813004 -0.593300
		CHANNELS 3 Xrotation Yrotation Zrotation
		End Site
		{
			OFFSET 0.000000 21.880577 0.000000
		}
	}
	JOINT OccupyGuyFacialAnim_Joint
	{
		OFFSET 1.000000 -70.206398 -1.655000
		CHANNELS 3 Xrotation Yrotation Zrotation
		End Site
		{
			OFFSET 0.000000 21.880577 0.000000
		}
	}
}
MOTION
Frames: 5
Frame Time: 0.016667
-0.398089 69.374367 1.391151 2.379702 -11.973505 -0.586129 -0.000000 0.000001 -0.000000 -17.226478 12.585193 12.928824 21.699593 4.940631 1.929657 -5.485734 5.635410 -10.823496 0.000000 -0.000000 0.000000 0.000001 0.000000 -0.000001 -10.803671 -8.748875 -6.139906 23.151870 -5.003808 -1.815730 -13.947308 -0.836495 8.852289 -0.000000 -0.000000 -0.000000 0.000001 0.000000 -0.000000 9.421261 2.003808 0.506200 2.870547 4.029878 0.917349 -9.001475 3.754921 1.727677 -3.884244 2.070162 -6.983153 5.913064 -0.105760 7.514577 0.000001 -0.000000 -0.000000 0.000001 -0.000000 -0.000000 0.000001 -0.000000 -0.000001 0.000001 -0.000000 -0.000000 0.000000 0.000000 -0.000000 0.000001 -0.000000 -0.000000 0.000000 0.000000 -0.000000 0.000001 -0.000000 -0.000000 0.000001 -0.000000 -0.000000 -1.295774 0.077918 -4.827719 -3.652862 -0.069590 -73.007018 -0.000053 -15.717676 -0.000418 2.306657 0.164984 -5.013133 8.265296 -7.734423 18.880840 5.407305 20.572718 -9.835097 -0.000000 0.000001 0.000000 0.273659 -4.246501 -3.910705 0.097440 -0.794742 -17.447640 0.000000 -0.000000 0.000001 0.248919 -1.909198 -12.464994 -0.126920 -0.878906 -17.469121 -0.000000 -0.000001 -0.000001 0.311237 -1.760787 -17.977492 -0.194372 -1.090508 -20.983248 -0.000000 0.000000 -0.000001 0.622130 -0.700684 -24.132872 -0.024678 -0.945235 -17.465315 -0.000001 0.000001 0.000001 0.000000 0.000002 0.000000 -1.295768 -0.077837 4.827746 3.909176 3.069878 67.997743 -0.000006 18.089263 0.000019 2.313892 -1.592967 -2.170078 8.265280 7.734432 -18.880817 5.407342 -20.572678 9.835188 -0.000001 0.000000 -0.000000 0.272415 4.252683 3.917184 0.097387 0.794948 17.452766 0.000001 0.000000 0.000004 0.250214 1.903638 12.463710 -0.126984 0.878944 17.470159 0.000000 0.000002 -0.000004 0.310434 1.762621 17.988968 -0.194382 1.090564 20.984708 0.000001 -0.000001 -0.000001 0.626363 0.701960 24.132131 -0.024620 0.945186 17.464112 -0.000001 0.000000 0.000001 0.000001 -0.000001 0.000001 -0.000000 0.000000 -0.000000 0.000000 0.000000 0.000000 -0.000000 0.000000 -0.000000 -0.000000 0.000000 -0.000000 -0.000000 0.000000 -0.000000 0.000000 0.000000 -0.000000 -0.000000 0.000000 -0.000000 -0.000000 0.000000 -0.000000 -0.000000 0.000000 -0.000000 0.000000 0.000000 -0.000000 -0.000000 0.000001 -0.000000 -0.000000 0.000001 -0.000000 -0.000000 0.000001 -0.000000 
-0.362688 69.367371 1.397910 2.552389 -12.054650 -0.598296 -0.000000 0.000001 -0.000000 -17.448316 12.538393 12.951687 21.836581 5.005004 1.940252 -5.563055 5.684845 -10.819927 -0.000000 -0.000000 -0.000000 -0.000001 0.000000 0.000000 -10.967754 -8.738261 -6.124414 23.099898 -4.962937 -1.810040 -13.896894 -0.807121 8.870008 -0.000000 0.000000 0.000000 0.000001 -0.000001 0.000000 9.396742 1.921070 0.526500 2.806025 4.034561 0.910477 -9.063600 3.756301 1.734031 -4.162336 1.706294 -7.754409 6.269309 -1.220015 8.671230 -0.000000 0.000000 -0.000000 -0.000000 0.000000 -0.000000 -0.000000 0.000000 -0.000000 -0.000000 0.000000 -0.000000 -0.000000 0.000000 0.000000 -0.000000 0.000000 -0.000000 -0.000000 0.000000 0.000000 -0.000000 0.000000 -0.000000 -0.000000 0.000000 -0.000000 -1.298116 0.155753 -4.850346 -3.189658 0.061113 -72.936735 -0.000017 -16.015503 -0.000193 3.331693 -0.184958 -5.638287 8.273798 -7.737120 18.864334 5.390313 20.552446 -9.830147 -0.000001 0.000002 0.000001 0.270696 -4.248329 -3.950672 0.097113 -0.795844 -17.472131 0.000001 -0.000003 -0.000001 0.246382 -1.912590 -12.540571 -0.127545 -0.880735 -17.507085 -0.000001 -0.000001 0.000001 0.308627 -1.764645 -18.061525 -0.195019 -1.092074 -21.014972 0.000001 0.000003 0.000003 0.621588 -0.702826 -24.174736 -0.025603 -0.948271 -17.523250 0.000001 0.000001 0.000001 0.000001 -0.000001 -0.000001 -1.275744 -0.132166 4.800657 4.101210 3.268592 67.974500 0.000930 18.208666 -0.000171 2.345981 -1.166087 -2.036981 8.265280 7.734431 -18.880815 5.407341 -20.572678 9.835185 -0.000000 -0.000001 0.000003 0.272078 4.256424 3.991427 0.096752 0.796879 17.496457 -0.000002 0.000000 0.000002 0.248838 1.912041 12.629752 -0.128510 0.883670 17.567549 -0.000002 -0.000000 -0.000001 0.304026 1.771983 18.193766 -0.195449 1.093395 21.041598 -0.000000 0.000001 -0.000002 0.625180 0.706768 24.225477 -0.026351 0.950795 17.571488 -0.000001 -0.000001 -0.000001 0.000000 -0.000000 0.000001 -0.000000 -0.000000 -0.000000 0.000000 -0.000000 -0.000000 -0.000000 -0.000000 0.000000 -0.000000 -0.000000 0.000000 -0.000000 -0.000000 -0.000000 0.000000 -0.000000 -0.000000 -0.000000 -0.000000 0.000000 -0.000000 -0.000000 0.000000 -0.000000 -0.000000 -0.000000 0.000000 -0.000000 -0.000000 -0.000000 0.000001 -0.000000 -0.000000 0.000001 -0.000000 -0.000000 0.000001 -0.000000 
-0.257895 69.355209 1.404410 2.726760 -12.107142 -0.609754 0.000000 0.000000 -0.000000 -17.754597 12.488642 12.920254 22.120900 5.058217 1.955311 -5.724885 5.726314 -10.752729 -0.000000 0.000000 -0.000000 0.000000 -0.000000 0.000000 -11.145294 -8.715297 -6.173811 23.034512 -4.934706 -1.804556 -13.810929 -0.793409 8.951827 -0.000000 -0.000000 -0.000000 0.000000 -0.000001 -0.000000 9.393765 1.819887 0.568244 2.763057 4.049149 0.909947 -9.100130 3.757395 1.768803 -4.412550 1.409382 -8.672616 6.710947 -2.881739 10.234383 0.000001 -0.000001 0.000000 0.000001 -0.000001 0.000000 0.000001 -0.000001 0.000000 0.000001 -0.000001 0.000000 0.000001 -0.000001 0.000000 0.000001 -0.000001 0.000000 0.000001 -0.000001 0.000000 0.000001 -0.000001 0.000000 0.000001 -0.000001 0.000000 -1.303885 0.333881 -4.902908 -3.050630 0.056952 -72.883364 -0.000014 -15.382368 -0.000231 4.405431 -1.213634 -6.241242 8.292466 -7.742936 18.828427 5.350614 20.509292 -9.813156 0.000000 0.000002 0.000004 0.264215 -4.252226 -4.038107 0.096376 -0.798201 -17.525702 -0.000000 -0.000001 -0.000000 0.240796 -1.919966 -12.705971 -0.128827 -0.884776 -17.590363 0.000001 0.000000 0.000001 0.302887 -1.773024 -18.245322 -0.196337 -1.095548 -21.084483 -0.000001 0.000002 -0.000002 0.620438 -0.707522 -24.266335 -0.027729 -0.954876 -17.650022 -0.000000 0.000000 -0.000001 0.000000 -0.000001 -0.000001 -1.219722 -0.284618 4.724589 4.623790 3.807457 67.911799 0.003487 18.543421 -0.000407 2.401642 -0.735410 -1.898758 8.265278 7.734429 -18.880815 5.407347 -20.572680 9.835186 0.000001 -0.000001 0.000003 0.271348 4.264608 4.154793 0.095369 0.801149 17.592639 -0.000000 0.000001 0.000000 0.245836 1.930335 12.992192 -0.131766 0.893974 17.778803 0.000001 0.000001 -0.000001 0.296100 1.794284 18.638709 -0.197845 1.099610 21.166811 0.000000 -0.000001 -0.000003 0.622696 0.717226 24.429157 -0.030328 0.963088 17.807181 -0.000002 0.000000 0.000001 0.000000 0.000000 -0.000001 -0.000000 -0.000000 -0.000001 -0.000000 -0.000000 -0.000000 -0.000000 -0.000000 -0.000001 -0.000000 -0.000000 -0.000001 -0.000000 -0.000000 -0.000001 -0.000000 -0.000000 -0.000000 -0.000000 -0.000000 -0.000001 -0.000000 -0.000000 -0.000001 -0.000000 -0.000000 -0.000001 -0.000000 -0.000000 -0.000000 0.000000 0.000000 -0.000000 0.000000 0.000000 -0.000000 0.000000 0.000000 -0.000000 
-0.091141 69.338310 1.410999 2.902081 -12.143251 -0.620477 0.000000 0.000000 -0.000000 -18.130059 12.438845 12.840023 22.529982 5.106525 1.974560 -5.959471 5.763703 -10.630387 -0.000000 0.000000 -0.000000 -0.000000 0.000000 -0.000000 -11.334539 -8.680625 -6.282850 22.954205 -4.912007 -1.797685 -13.691053 -0.789913 9.089471 -0.000000 0.000000 -0.000000 -0.000000 0.000000 -0.000000 9.412792 1.705950 0.624683 2.745820 4.068238 0.905523 -9.107702 3.755930 1.814801 -4.798414 1.136499 -9.430944 7.361172 -4.778216 11.803093 -0.000000 -0.000001 0.000000 -0.000000 -0.000001 0.000000 -0.000000 -0.000001 0.000000 -0.000000 -0.000001 -0.000000 -0.000000 -0.000001 -0.000001 -0.000000 -0.000001 -0.000000 -0.000000 -0.000001 -0.000001 -0.000000 -0.000001 0.000000 -0.000000 -0.000001 0.000000 -1.311608 0.529196 -4.962478 -2.922618 0.021941 -72.895658 0.000033 -14.822134 -0.000281 5.163009 -2.007068 -6.577187 8.316514 -7.750514 18.781917 5.299058 20.453584 -9.790660 -0.000002 0.000001 0.000000 0.255901 -4.257254 -4.151001 0.095365 -0.801283 -17.594984 0.000001 0.000001 0.000002 0.237190 -1.930309 -12.919505 -0.130452 -0.890009 -17.697821 0.000003 0.000002 -0.000001 0.295438 -1.783798 -18.482712 -0.198016 -1.100016 -21.174408 0.000000 0.000001 0.000000 0.618887 -0.713570 -24.384663 -0.030474 -0.963437 -17.813808 0.000001 -0.000001 0.000003 0.000000 0.000000 -0.000000 -1.134008 -0.519546 4.607376 5.397549 4.600120 67.820404 0.007694 19.058796 -0.000935 2.479782 -0.301324 -1.755886 8.265280 7.734434 -18.880820 5.407344 -20.572678 9.835189 -0.000000 -0.000000 0.000004 0.270310 4.275206 4.365241 0.093652 0.806674 17.716780 -0.000000 0.000001 0.000002 0.241735 1.953899 13.457444 -0.135988 0.907067 18.049156 -0.000000 0.000001 -0.000001 0.286099 1.822945 19.208679 -0.200982 1.107615 21.328430 -0.000000 0.000000 -0.000002 0.619391 0.730658 24.690605 -0.035457 0.978939 18.111193 -0.000001 -0.000004 -0.000002 0.000001 0.000000 0.000001 0.000001 -0.000000 0.000001 0.000001 -0.000000 0.000001 0.000001 -0.000000 0.000001 0.000001 -0.000000 0.000001 0.000001 -0.000000 0.000001 0.000001 -0.000000 0.000001 0.000001 -0.000000 0.000001 0.000001 -0.000000 0.000001 0.000001 -0.000000 0.000001 0.000001 -0.000000 0.000001 0.000000 0.000000 -0.000000 0.000000 0.000000 -0.000000 0.000000 0.000000 -0.000000 
0.130182 69.317390 1.418038 3.077644 -12.175248 -0.630370 -0.000000 -0.000000 -0.000000 -18.558490 12.392386 12.715412 23.040455 5.156695 1.997886 -6.256958 5.800956 -10.460389 -0.000000 0.000000 -0.000000 0.000001 -0.000000 -0.000000 -11.532923 -8.635331 -6.445392 22.856243 -4.887560 -1.787624 -13.538586 -0.790816 9.273736 -0.000000 0.000000 -0.000000 -0.000000 0.000001 -0.000000 9.445108 1.580861 0.689528 2.744152 4.087134 0.891779 -9.097146 3.749334 1.859649 -5.267897 0.741759 -9.915451 8.164508 -6.829559 13.232365 0.000001 -0.000000 -0.000000 0.000001 -0.000000 -0.000000 0.000001 -0.000000 0.000000 0.000001 -0.000000 -0.000001 0.000001 -0.000000 -0.000001 0.000001 -0.000000 -0.000001 0.000001 -0.000000 -0.000001 0.000001 -0.000000 -0.000000 0.000001 -0.000000 -0.000000 -1.329870 0.782993 -5.049403 -2.831415 -0.014490 -72.803041 -0.000014 -14.409221 -0.000559 5.235067 -2.154079 -6.567841 8.347153 -7.760204 18.722763 5.233177 20.382714 -9.761545 -0.000001 0.000001 -0.000001 0.245264 -4.263609 -4.294538 0.094121 -0.805193 -17.683037 0.000000 -0.000000 0.000002 0.233290 -1.943630 -13.191052 -0.132613 -0.896603 -17.834447 -0.000000 -0.000002 0.000000 0.285950 -1.797464 -18.784625 -0.200240 -1.105681 -21.288682 -0.000002 0.000001 -0.000004 0.616916 -0.721272 -24.535221 -0.033968 -0.974287 -18.022062 -0.000001 0.000001 -0.000000 0.000001 -0.000001 -0.000002 -1.025138 -0.821262 4.456890 6.342769 5.560422 67.711114 0.013337 19.719936 -0.001479 2.579414 0.135858 -1.609560 8.265280 7.734433 -18.880820 5.407343 -20.572678 9.835191 0.000001 -0.000000 0.000003 0.268941 4.288729 4.631979 0.091438 0.813637 17.874458 0.000000 0.000001 0.000000 0.236219 1.983682 14.044452 -0.141418 0.923557 18.389070 0.000002 0.000001 0.000003 0.273339 1.859053 19.925916 -0.204971 1.117813 21.533742 -0.000003 -0.000000 -0.000005 0.615131 0.747534 25.020388 -0.042108 0.998988 18.496765 -0.000001 0.000000 0.000004 0.000001 0.000000 -0.000001 -0.000000 0.000000 -0.000000 -0.000000 0.000000 0.000000 -0.000000 0.000000 -0.000000 -0.000000 0.000000 -0.000000 -0.000000 0.000000 -0.000000 -0.000000 0.000000 0.000000 -0.000000 0.000000 -0.000000 -0.000000 0.000000 -0.000000 -0.000000 0.000000 -0.000000 -0.000000 0.000000 0.000000 -0.000000 -0.000000 -0.000000 -0.000000 -0.000000 -0.000000 -0.000000 -0.000000 -0.000000 
